<svg id="Layer_1" data-name="Layer 1" xmlns="http://www.w3.org/2000/svg" viewBox="0 0 512 512"><rect width="512" height="512" fill="#fff"/><path d="M150.15,183.75V132.09h73.17c42.32,0,78.09.6,85.58,1.42,68.27,7.45,114.59,39.39,130.39,90,2.75,8.61,3.1,12.53,3.1,32.71V279l11.58,4.3c10.37,3.75,11.4,4.31,10.2,6.63-.73,1.38-1.85,2.5-2.5,2.5-1.59,0-23.55-7.71-48.12-17-11.54-4.31-21.27-7.28-21.53-6.59s-.56,1.42-.3,1.64,10.59,4.3,23,8.61,23,8.61,23.59,9.25-5.25,18.51-6.5,18.51c-.26,0-14.85-5.46-32.42-12.14-29.44-11.19-31.81-12.35-31-14.89a171,171,0,0,0,1.55-19.59c.6-14.46.3-18-2.07-25.82A87.48,87.48,0,0,0,352,205.74a95.64,95.64,0,0,0-31.55-18.94L310,183.1l-43.39-.43-43.43-.43v21.87a132.9,132.9,0,0,1-1,22.38c-1.55.82-114.85-43-119-46-1.63-1.21,1.25-1.21,12.92,0,8.26.86,19.37,1.94,24.66,2.41Z" fill="#212121"/><path d="M71,222.49a410.22,410.22,0,0,1-39.91-17.22c-.3-.82.26-1.51,1.25-1.46,1.76,0,189.14,72.18,190.22,73.17a25.09,25.09,0,0,1,0,7.24l-.39,6.67-56.09-22.6c-31-12.35-56.86-23-57.51-23.59s-.47-2.28.31-3.7C110.24,238.5,107.83,237.34,71,222.49Z" fill="#1ea68a"/><path d="M154.11,244.4v-7.84a46.14,46.14,0,0,1,.34-7.79s15.54,5.9,34.14,13.13l33.79,12.92.39,8.05c0,4.3,0,8.09-.65,8.09s-16.14-6-34.44-13.39Z" fill="#1ea68a"/><path d="M150.15,379.91V323.43c0-53.16,0-56.39,2.32-55.7,1.29.43,17.43,6.89,35.94,14.38L222,295.67l-.21,18.16V332h73.65l-11.24-4.31-12.78-5.33c-.78-.35-.48-1.43.69-2.59,1.76-1.81,3.78-1.33,19.19,4.57,26.69,10.15,83.38,33.1,84.59,34.43S360.64,367,345.75,371.3c-25.83,7.53-29.32,7.75-115.62,8.31Z" fill="#212121"/><path d="M329.56,323.09a131.6,131.6,0,0,0,18.08-11.41c6.89-5.55,7.49-5.77,11.24-4.3,2.19.9,30.65,12,63.27,24.62s59.11,23.16,58.85,23.37-10.81-1.68-23.5-4.3-29.53-5.81-37.45-7.15l-14.47-2.37-6.11,4.74a35.16,35.16,0,0,1-17.22,8.26c-1.29,0-16.14-5.85-33-12.91l-30.64-12.91Z" fill="#1ea68a"/></svg>