<?xml version="1.0" encoding="UTF-8" standalone="no"?>
<!DOCTYPE svg PUBLIC "-//W3C//DTD SVG 1.1//EN" "http://www.w3.org/Graphics/SVG/1.1/DTD/svg11.dtd">

<!-- Created with Vectornator (http://vectornator.io/) -->
<svg height="100%" stroke-miterlimit="10" style="fill-rule:nonzero;clip-rule:evenodd;stroke-linecap:round;stroke-linejoin:round;" version="1.1" viewBox="0 0 256 256" width="100%" xml:space="preserve" xmlns="http://www.w3.org/2000/svg" xmlns:vectornator="http://vectornator.io" xmlns:xlink="http://www.w3.org/1999/xlink">
<metadata>
<vectornator:setting key="IsTimeLapseWatermarkDisabled" value="false"/>
<vectornator:setting key="UndoHistoryDisabled" value="true"/>
<vectornator:setting key="VNDimensionsVisible" value="true"/>
<vectornator:setting key="VNSnapToGuides" value="true"/>
<vectornator:setting key="WDCMYKEnabledKey" value="false"/>
<vectornator:setting key="WDDisplayWhiteBackground" value="false"/>
<vectornator:setting key="WDDynamicGuides" value="false"/>
<vectornator:setting key="WDGuidesVisible" value="true"/>
<vectornator:setting key="WDIsolateActiveLayer" value="false"/>
<vectornator:setting key="WDOutlineMode" value="false"/>
<vectornator:setting key="WDRulersVisible" value="true"/>
<vectornator:setting key="WDSnapToEdges" value="false"/>
<vectornator:setting key="WDSnapToGrid" value="false"/>
<vectornator:setting key="WDSnapToPoints" value="false"/>
<vectornator:setting key="WDUnits" value="Points"/>
</metadata>
<defs/>
<clipPath id="ArtboardFrame">
<rect height="256" width="256" x="0" y="0"/>
</clipPath>
<g clip-path="url(#ArtboardFrame)" id="Untitled" vectornator:layerName="Untitled">
<path d="M208.919 65.133C216.221 64.8086 223.519 64.3744 230.824 64.1452C236.572 63.9643 237.92 63.2286 240.031 57.9012C245.052 45.2274 250.014 32.5283 255 19.84L56.4924 19.84C48.8794 22.918 45.3226 29.5383 42.1855 36.4373C39.877 41.521 41.732 44.2698 47.2017 44.271C54.1936 44.2734 61.1842 44.271 68.176 44.271C61.1649 46.5722 57.6647 52.2904 54.3998 58.1364C52.3289 61.844 53.8353 64.5879 57.8071 64.6048C67.8865 64.647 77.9672 64.5819 88.0466 64.5577C91.3828 64.5855 94.7189 64.6301 98.0574 64.6325C109.286 64.6434 120.52 64.5819 131.749 64.6808C133.98 64.7001 136.613 63.8546 138.437 65.6529C140.745 68.2605 137.661 75.2234 137.269 76.0544C134.992 80.8836 131.435 84.5381 126.825 87.1144C125.506 87.8501 123.886 88.259 122.367 88.3844C119.421 88.6269 116.451 88.5629 113.49 88.6269C104.593 88.6076 95.6958 88.5436 86.8019 88.622C85.6224 88.6329 84.2293 89.084 83.3151 89.8101C77.3123 94.585 75.1147 101.366 73.7808 108.555C73.7506 108.718 73.7772 108.894 73.7977 109.062C74.0522 111.176 74.9893 112.499 77.3714 112.466C82.4527 112.392 106.355 112.37 113.216 112.583C115.839 112.663 121.235 111.797 121.065 114.995C120.071 125.495 109.745 133.805 97.938 132.939C88.7993 132.739 79.8077 132.872 70.7378 132.908C70.7366 132.909 70.7354 132.912 70.7341 132.914C66.1461 132.927 61.5484 133.101 56.9833 132.783C46.3128 132.041 40.3932 140.894 37.1753 148.404C36.0862 150.949 37.8845 153.136 40.6899 153.165C45.3395 153.214 49.9878 153.14 54.6362 153.116C78.4979 153.112 102.36 153.106 126.221 153.102C126.221 153.103 126.221 153.103 126.221 153.104C129.421 153.329 132.658 153.329 135.806 153.848C138.777 154.333 139.82 156.234 138.638 158.724C135.215 165.925 128.352 174.467 117.534 173.613C113.33 173.28 109.074 173.605 104.842 173.63L104.843 173.629L104.843 173.629C95.451 173.606 86.0578 173.5 76.6694 173.624C74.8916 173.65 73.0173 174.358 71.3782 175.147C65.6118 177.924 62.5869 183.177 60.0384 188.641C58.6489 191.619 60.3483 193.86 63.6796 193.882C71.4614 193.927 79.2445 193.85 87.0275 193.821C87.0275 193.823 87.0275 193.823 87.0263 193.824C97.7088 193.852 108.391 193.866 119.071 193.924C120.058 193.93 123.69 193.727 123.652 196.518C123.302 199.542 122.257 202.18 120.761 204.506C117.283 209.914 112.813 214.137 105.715 214.228C97.9175 214.328 90.1212 214.665 82.3237 214.763C74.8651 214.856 67.3908 214.559 59.9443 214.885C57.1184 215.01 54.1067 215.945 51.604 217.298C46.5287 220.042 43.4411 224.224 41.6235 230.085C40.4343 232.658 42.0167 234.799 44.8414 235.106C45.5132 235.18 96.7318 235.138 121.659 235.125C129.458 235.121 162.769 235.199 171.625 235.255C175.154 235.278 178.682 235.263 182.21 235.266L182.21 235.268C182.37 235.32 182.531 235.422 182.689 235.424C193.452 235.501 204.218 235.594 214.98 235.574C215.668 235.574 216.573 234.822 217.008 234.173C223.27 224.827 229.312 215.33 235.765 206.121C237.954 202.995 241.416 196.958 237.532 196.54L217.843 196.54L217.845 196.539C205.119 196.542 164.13 196.553 156.244 196.553C156.61 192.705 156.95 189.298 157.257 185.888C157.627 181.798 157.929 177.7 158.331 173.613C158.962 167.205 159.773 160.808 160.248 154.389C160.4 152.336 160.867 151.621 163.012 151.609C172.987 151.548 182.959 151.329 192.93 151.141C196.255 151.077 198.866 150.005 200.307 146.608C202.069 142.451 204.152 138.428 206.126 134.363C209.311 127.807 212.674 121.333 215.635 114.678C216.687 112.315 216.841 109.537 217.298 106.928C217.562 105.423 216.787 104.827 215.249 104.833C200.163 104.89 185.078 104.903 169.992 104.929C169.992 104.929 169.992 104.927 169.993 104.926L165.007 104.926C165.466 104.195 165.764 103.926 165.797 103.627C166.538 97.2373 167.281 90.8449 167.954 84.4465C168.515 79.1263 168.931 73.7881 169.57 68.4776C169.651 67.8154 170.688 66.7975 171.339 66.7504C177.792 66.2873 184.257 65.9616 190.72 65.6565C195.855 65.4129 200.994 65.2512 206.13 65.0522C206.138 65.0414 206.153 65.0257 206.162 65.0136C206.151 65.0269 206.142 65.039 206.132 65.0522C207.061 65.0824 207.992 65.1753 208.919 65.133" fill="#ffffff" fill-rule="evenodd" opacity="1" stroke="none"/>
<path d="M12.7245 210.707C19.7525 210.707 25.4489 216.405 25.4489 223.432C25.4489 230.46 19.7525 236.156 12.7245 236.156C5.69646 236.156 0 230.46 0 223.432C0 216.405 5.69646 210.707 12.7245 210.707" fill="#ffffff" fill-rule="evenodd" opacity="1" stroke="none"/>
<path d="M34.9533 169.48C41.9813 169.48 47.6778 175.177 47.6778 182.205C47.6778 189.232 41.9813 194.929 34.9533 194.929C27.9253 194.929 22.2288 189.232 22.2288 182.205C22.2288 175.177 27.9253 169.48 34.9533 169.48" fill="#ffffff" fill-rule="evenodd" opacity="1" stroke="none"/>
<path d="M51.4072 87.8018C58.434 87.8018 64.1316 93.4982 64.1316 100.526C64.1316 107.553 58.434 113.251 51.4072 113.251C44.3792 113.251 38.6827 107.553 38.6827 100.526C38.6827 93.4982 44.3792 87.8018 51.4072 87.8018" fill="#ffffff" fill-rule="evenodd" opacity="1" stroke="none"/>
<path d="M23.4128 31.038C30.4408 31.038 36.1372 36.7344 36.1372 43.7624C36.1372 50.7892 30.4408 56.4869 23.4128 56.4869C16.386 56.4869 10.6883 50.7892 10.6883 43.7624C10.6883 36.7344 16.386 31.038 23.4128 31.038" fill="#ffffff" fill-rule="evenodd" opacity="1" stroke="none"/>
<path d="M0 0L480 0L480 480L0 480L0 0Z" fill="none" fill-rule="evenodd" opacity="1" stroke="none"/>
</g>
</svg>
