<svg id="Layer_1" data-name="Layer 1" xmlns="http://www.w3.org/2000/svg" viewBox="0 0 1666.67 2500"><path id="path0_fill" data-name="path0 fill" d="M416.67,2500c230,0,416.66-186.67,416.66-416.67V1666.67H416.67C186.67,1666.67,0,1853.33,0,2083.33S186.67,2500,416.67,2500Z" fill="#0acf83"/><path id="path1_fill" data-name="path1 fill" d="M0,1250c0-230,186.67-416.67,416.67-416.67H833.33v833.34H416.67C186.67,1666.67,0,1480,0,1250Z" fill="#a259ff"/><path id="path1_fill-2" data-name="path1 fill" d="M0,416.67C0,186.67,186.67,0,416.67,0H833.33V833.33H416.67C186.67,833.33,0,646.67,0,416.67Z" fill="#f24e1e"/><path id="path2_fill" data-name="path2 fill" d="M833.33,0H1250c230,0,416.67,186.67,416.67,416.67S1480,833.33,1250,833.33H833.33Z" fill="#ff7262"/><path id="path3_fill" data-name="path3 fill" d="M1666.67,1250c0,230-186.67,416.67-416.67,416.67S833.33,1480,833.33,1250,1020,833.33,1250,833.33,1666.67,1020,1666.67,1250Z" fill="#1abcfe"/></svg>