<svg id="Layer_1" data-name="Layer 1" xmlns="http://www.w3.org/2000/svg" xmlns:xlink="http://www.w3.org/1999/xlink" viewBox="0 0 95.39 131.07"><defs><linearGradient id="linear-gradient" x1="-205.91" y1="320.96" x2="-204.86" y2="320.2" gradientTransform="matrix(95, 0, 0, -131, 19557.89, 42068.25)" gradientUnits="userSpaceOnUse"><stop offset="0" stop-color="#fff" stop-opacity="0.1"/><stop offset="0.14" stop-color="#fff" stop-opacity="0.08"/><stop offset="0.61" stop-color="#fff" stop-opacity="0.02"/><stop offset="1" stop-color="#fff" stop-opacity="0"/></linearGradient></defs><path d="M.05,105.75,16.18,2.52a3,3,0,0,1,5.58-.95L38.44,32.69,45.09,20a3,3,0,0,1,5.27,0l45,85.72Z" fill="#ffa000"/><path d="M55.78,65.54,38.43,32.68.05,105.75Z" fill="#f57c00"/><path d="M95.39,105.75,83,29.29a3,3,0,0,0-5-1.61L.05,105.75l43.13,24.18a8.94,8.94,0,0,0,8.71,0l43.5-24.18Z" fill="#ffca28"/><path d="M83,29.29a3,3,0,0,0-5-1.61L62.52,43.19,50.36,20a3,3,0,0,0-5.28,0L38.43,32.69,21.75,1.57a3,3,0,0,0-5.57,1L.05,105.75H0l.05.06.43.21L78,28.44A3,3,0,0,1,83,30.05l12.26,75.77.12-.07L83,29.29ZM.19,105.61l16-102.35a3,3,0,0,1,5.58-1L38.44,33.42l6.65-12.66a3,3,0,0,1,5.27,0L62.28,43.42.19,105.61Z" fill="#fff" fill-opacity="0.2"/><path d="M51.89,129.2a8.94,8.94,0,0,1-8.71,0l-43-24.11-.11.66,43.13,24.18a8.94,8.94,0,0,0,8.71,0l43.5-24.18-.12-.69L51.89,129.2Z" fill="#a52714" opacity="0.2" style="isolation:isolate"/><path id="b" d="M82.88,29.31a3,3,0,0,0-2-2.34,3,3,0,0,0-3,.73L62.44,43.2,50.32,20.05a3,3,0,0,0-5.25,0L38.44,32.71,21.81,1.61a3,3,0,0,0-5.55,1L.19,105.73l43,24.17a8.88,8.88,0,0,0,8.68,0l43.34-24.17L82.88,29.31Z" fill="url(#linear-gradient)"/></svg>