<svg id="Layer_1" data-name="Layer 1" xmlns="http://www.w3.org/2000/svg" xmlns:xlink="http://www.w3.org/1999/xlink" viewBox="0 0 482.24 512"><defs><clipPath id="clip-path" transform="translate(-0.03)"><path d="M413.49,236.26,275.67,374.13,413.49,512H256L118.13,374.13,256,236.26ZM256,0,0,256l78.77,78.76L413.49,0Z" fill="none"/></clipPath><linearGradient id="linear-gradient" x1="-1925.3" y1="893.74" x2="-973.17" y2="-58.39" gradientTransform="translate(337.59 412.28) scale(0.06)" gradientUnits="userSpaceOnUse"><stop offset="0" stop-color="#1a237e" stop-opacity="0.4"/><stop offset="1" stop-color="#1a237e" stop-opacity="0"/></linearGradient></defs><rect x="382.24" y="189" width="100" height="100" opacity="0.01"/><g clip-path="url(#clip-path)"><path d="M118.18,374.13l78.74,78.77L413.49,236.26H256Z" transform="translate(-0.03)" fill="#39cefd"/></g><g clip-path="url(#clip-path)"><path d="M256,0H413.49L78.8,334.74,0,256Z" transform="translate(-0.03)" fill="#39cefd"/></g><g clip-path="url(#clip-path)"><path d="M196.92,452.9,256,512H413.49L275.67,374.13Z" transform="translate(-0.03)" fill="#03569b"/></g><g clip-path="url(#clip-path)"><path d="M313.73,412.43l-38.06-38.3L196.92,452.9Z" transform="translate(-0.03)" fill="url(#linear-gradient)"/></g><g clip-path="url(#clip-path)"><path d="M118.17,374.1l78.75-78.77,78.8,78.77-78.8,78.77Z" transform="translate(-0.03)" fill="#16b9fd"/></g></svg>