<svg id="Layer_1" data-name="Layer 1" xmlns="http://www.w3.org/2000/svg" viewBox="0 0 1020 1020.42"><path d="M510,0C228.22,0,0,228.23,0,510,0,735.68,146,926.29,348.71,993.86c25.5,4.46,35.06-10.83,35.06-24.22,0-12.11-.63-52.28-.63-95C255,898.24,221.85,843.41,211.65,814.72c-5.74-14.66-30.6-59.92-52.27-72-17.85-9.56-43.35-33.15-.64-33.79,40.16-.64,68.85,37,78.41,52.27,45.9,77.14,119.21,55.47,148.54,42.08,4.46-33.15,17.85-55.46,32.51-68.21-113.47-12.75-232-56.74-232-251.81,0-55.47,19.76-101.37,52.28-137.07-5.1-12.75-23-65,5.09-135.15,0,0,42.72-13.38,140.25,52.28a481,481,0,0,1,255,0C736.31,197,779,211,779,211c28,70.13,10.2,122.4,5.1,135.15,32.51,35.7,52.27,81,52.27,137.07,0,195.71-119.21,239.06-232.69,251.81,18.49,15.93,34.43,46.54,34.43,94.35,0,68.21-.64,123-.64,140.25,0,13.39,9.56,29.32,35.06,24.22C874,926.29,1020,735,1020,510,1020,228.23,791.78,0,510,0Z" fill="#1b1f23" fill-rule="evenodd"/><path d="M673,993.68l-.5.17C647,999,637.47,983,637.47,969.63c0-17.25.64-72,.64-140.25,0-47.81-15.94-78.42-34.43-94.35,113.48-12.75,232.69-56.1,232.69-251.81,0-56.07-19.76-101.37-52.27-137.07,5.1-12.75,22.9-65-5.1-135.15,0,0-42.69-14-140.18,52.32a481,481,0,0,0-255,0C286.29,197.66,243.57,211,243.57,211c-28.09,70.15-10.19,122.4-5.09,135.15-32.52,35.7-52.28,81.6-52.28,137.07,0,195.07,118.53,239.06,232,251.81-14.66,12.75-28.05,35.06-32.51,68.21-29.33,13.39-102.64,35.06-148.54-42.08-9.56-15.27-38.25-52.91-78.41-52.27-42.71.64-17.21,24.23.64,33.79,21.67,12.08,46.53,57.34,52.27,72,10.2,28.69,43.35,83.52,171.49,59.92,0,42.72.63,82.89.63,95,0,12.62-8.5,26.92-30.81,24.79,0,.46.07.91.09,1.37a512.4,512.4,0,0,0,320-2A.36.36,0,0,1,673,993.68Z" fill="#fff"/></svg>