<svg id="Layer_1" data-name="Layer 1" xmlns="http://www.w3.org/2000/svg" viewBox="0 0 512 512"><rect width="512" height="512"/><path d="M175.71,311.31h-22v-45.7H110.89v45.7h-22V204.67h22v43.21h42.85V204.67h22Z" fill="#fff"/><path d="M230,312.78a43,43,0,0,1-16.51-3,36.44,36.44,0,0,1-12.38-8.2,35.17,35.17,0,0,1-7.76-12.2,41.39,41.39,0,0,1-2.68-15v-2.86a50.3,50.3,0,0,1,2.6-16.52,38.09,38.09,0,0,1,7.4-12.92,33.3,33.3,0,0,1,11.65-8.46,37.34,37.34,0,0,1,15.34-3,37.75,37.75,0,0,1,15.09,2.82,30.19,30.19,0,0,1,11,7.91,33.64,33.64,0,0,1,6.66,12.27,53.48,53.48,0,0,1,2.24,16v9H212.11a22,22,0,0,0,2.09,7,18.17,18.17,0,0,0,4,5.39,17.65,17.65,0,0,0,5.75,3.47,20.59,20.59,0,0,0,7.4,1.25,26.25,26.25,0,0,0,10.69-2.16,21.5,21.5,0,0,0,8.42-6.7l10.4,11.64a31.12,31.12,0,0,1-4.76,5.28,32,32,0,0,1-6.74,4.57,39.54,39.54,0,0,1-8.75,3.23A44.53,44.53,0,0,1,230,312.78Zm-2.41-65a14.33,14.33,0,0,0-6,1.2,13.2,13.2,0,0,0-4.46,3.37,17.52,17.52,0,0,0-3,5.17,29.5,29.5,0,0,0-1.69,6.66h29.45v-1.68a21.46,21.46,0,0,0-.92-5.86,12.93,12.93,0,0,0-2.56-4.69,11.65,11.65,0,0,0-4.4-3.08A16.64,16.64,0,0,0,227.57,247.74Z" fill="#fff"/><path d="M296.93,311.31H275.69V198.81h21.24Z" fill="#fff"/><path d="M339.7,212.58v19.48h13.55v15.53H339.7v39.55a13.81,13.81,0,0,0,.51,4.1,5.15,5.15,0,0,0,4.07,3.77,16.69,16.69,0,0,0,3.55.33c1.27,0,2.43,0,3.48-.14s2-.22,2.75-.37v16a49.14,49.14,0,0,1-5.75,1.36,41.61,41.61,0,0,1-7.07.55,31.75,31.75,0,0,1-9.38-1.29,18,18,0,0,1-7.14-4.06,18.25,18.25,0,0,1-4.57-7.25,31.72,31.72,0,0,1-1.62-10.77V247.59H307V232.06h11.57V212.58Z" fill="#fff"/><path d="M367.2,287a27.83,27.83,0,0,1,2-10.51,23.54,23.54,0,0,1,5.64-8.37,27.23,27.23,0,0,1,8.8-5.56,30.76,30.76,0,0,1,11.45-2.05,31.43,31.43,0,0,1,11.54,2.05,27.23,27.23,0,0,1,8.89,5.56,23.64,23.64,0,0,1,5.63,8.37,27.84,27.84,0,0,1,2,10.51,27.21,27.21,0,0,1-2,10.43,24,24,0,0,1-5.63,8.29,26,26,0,0,1-8.89,5.46,32.5,32.5,0,0,1-11.54,2,31.8,31.8,0,0,1-11.45-2,26,26,0,0,1-8.8-5.46,23.85,23.85,0,0,1-5.64-8.29A27.2,27.2,0,0,1,367.2,287Z" fill="#48bbec"/></svg>