<svg id="Layer_1" data-name="Layer 1" xmlns="http://www.w3.org/2000/svg" viewBox="0 0 512 512"><rect width="512" height="512"/><path d="M175.69,279.23h-22v-45.7H110.87v45.7h-22V172.59h22V215.8h42.85V172.59h22Z" fill="#fff"/><path d="M230,280.7a42.76,42.76,0,0,1-16.51-3,36.25,36.25,0,0,1-12.38-8.2,35.12,35.12,0,0,1-7.76-12.2,41.5,41.5,0,0,1-2.68-15v-2.86a50.44,50.44,0,0,1,2.6-16.52,38.12,38.12,0,0,1,7.4-12.92,33.45,33.45,0,0,1,11.65-8.46,37.39,37.39,0,0,1,15.34-3,37.86,37.86,0,0,1,15.09,2.82,30.26,30.26,0,0,1,11,7.91,33.74,33.74,0,0,1,6.66,12.27,53.53,53.53,0,0,1,2.24,16v9H212.09a22,22,0,0,0,2.09,7,18.12,18.12,0,0,0,4,5.39,17.62,17.62,0,0,0,5.75,3.47,20.53,20.53,0,0,0,7.4,1.25A26.21,26.21,0,0,0,242,261.49a21.45,21.45,0,0,0,8.42-6.7l10.4,11.64a31,31,0,0,1-4.76,5.28,31.76,31.76,0,0,1-6.74,4.57,39.15,39.15,0,0,1-8.75,3.23A44.61,44.61,0,0,1,230,280.7Zm-2.41-65a14.56,14.56,0,0,0-6,1.2,13.17,13.17,0,0,0-4.46,3.37,17.62,17.62,0,0,0-3,5.17,29.46,29.46,0,0,0-1.69,6.66h29.45v-1.68a21.21,21.21,0,0,0-.92-5.86,13,13,0,0,0-2.56-4.69,11.71,11.71,0,0,0-4.4-3.08,16.67,16.67,0,0,0-6.44-1.13Z" fill="#fff"/><path d="M296.91,279.23H275.67V166.73h21.24Z" fill="#fff"/><path d="M339.68,180.5V200h13.55v15.53H339.68v39.55a13.81,13.81,0,0,0,.51,4.1,5.13,5.13,0,0,0,4.07,3.77,16.3,16.3,0,0,0,3.55.33,27.16,27.16,0,0,0,3.48-.14c1-.14,2-.22,2.75-.37v16a47.53,47.53,0,0,1-5.75,1.36,40.85,40.85,0,0,1-7.07.55,31.67,31.67,0,0,1-9.38-1.29,17.86,17.86,0,0,1-7.14-4.06,18.23,18.23,0,0,1-4.57-7.25,31.51,31.51,0,0,1-1.62-10.77V215.51H307V200h11.57V180.5Z" fill="#fff"/><path d="M367.18,254.92a27.81,27.81,0,0,1,2-10.51,23.59,23.59,0,0,1,5.64-8.37,27.31,27.31,0,0,1,8.8-5.56,30.89,30.89,0,0,1,11.45-2,31.57,31.57,0,0,1,11.54,2A27.27,27.27,0,0,1,415.5,236a23.66,23.66,0,0,1,5.63,8.37,27.81,27.81,0,0,1,2,10.51,27.37,27.37,0,0,1-2,10.43,23.88,23.88,0,0,1-5.63,8.29,26,26,0,0,1-8.89,5.46,32.42,32.42,0,0,1-11.54,2,31.5,31.5,0,0,1-11.45-2,26,26,0,0,1-8.8-5.46,23.77,23.77,0,0,1-5.64-8.29A27,27,0,0,1,367.18,254.92Z" fill="#48bbec"/><text transform="translate(162.78 332.26)" font-size="48" fill="#48bbec" font-family="Roboto-Medium, Roboto" font-weight="500">VENDOR</text></svg>