<svg id="Layer_1" data-name="Layer 1" xmlns="http://www.w3.org/2000/svg" viewBox="0 0 130.44 290.61"><path d="M128.12,115.65C112.81,48.11,80.9,30.13,72.76,17.42A144.22,144.22,0,0,1,63.86,0c-.43,6-1.22,9.78-6.32,14.33C47.3,23.46,3.81,58.9.15,135.64c-3.41,71.55,52.6,115.67,60,120.23,5.69,2.8,12.62.06,16-2.51,27-18.53,63.89-67.93,52-137.71" fill="#10aa50"/><path d="M66.18,217.77c-1.41,17.71-2.42,28-6,38.12,0,0,2.35,16.86,4,34.72H70a324,324,0,0,1,6.37-37.39C68.83,249.5,66.47,233.31,66.18,217.77Z" fill="#b8c4c2"/><path d="M76.38,253.23h0c-7.64-3.53-9.85-20.06-10.19-35.46a725.7,725.7,0,0,0,1.65-76.35c-.4-13.36.19-123.74-3.29-139.9a134.1,134.1,0,0,0,8.21,15.89c8.14,12.72,40.06,30.7,55.36,98.24C140,185.31,103.35,234.58,76.38,253.23Z" fill="#12924f"/></svg>