<svg id="Layer_1" data-name="Layer 1" xmlns="http://www.w3.org/2000/svg" viewBox="0 0 64 64"><path d="M57.33,12.44a32,32,0,1,0-5.77,44.89h0a32,32,0,0,0,5.76-44.88Z" fill="#ff6c37"/><path d="M42.79,20.39,29.3,34l-3.81-3.92C38.77,16.79,40.1,18,42.8,20.39Z" fill="#fff"/><path d="M29.3,34.36a.48.48,0,0,1-.32-.13l-3.84-3.84a.48.48,0,0,1,0-.67C38.23,16.63,40,17.24,43.11,20a.4.4,0,0,1,.16.35.39.39,0,0,1-.13.35L29.65,34.23a.51.51,0,0,1-.35.13Zm-3.15-4.29,3.15,3.15,12.8-12.8a2.87,2.87,0,0,0-3.79-.64C36,20.82,32.26,24,26.15,30.07Z" fill="#ff6c37"/><path d="M33.17,37.75,29.49,34,43,20.66c3.63,3.54-1.76,9.46-9.81,17.09Z" fill="#fff"/><path d="M33.17,38.23a.61.61,0,0,1-.32-.13l-3.76-3.68a.54.54,0,0,1,0-.43.53.53,0,0,1,0-.35L42.58,20.15a.51.51,0,0,1,.69,0,4.14,4.14,0,0,1,1.34,3.17c0,3.6-4.11,8.14-11.1,14.75a.54.54,0,0,1-.34.16Zm-3-4.24,3,3c5.34-5,10.43-10.24,10.46-13.76a3,3,0,0,0-.7-2Z" fill="#ff6c37"/><path d="M25.59,30.15l2.67,2.67a.16.16,0,0,1,0,.22l0,0-5.63,1.2a.53.53,0,0,1-.58-.27.55.55,0,0,1,.1-.64l3.28-3.25A.27.27,0,0,1,25.59,30.15Z" fill="#fff"/><path d="M22.5,34.79a1,1,0,0,1-.88-.51,1,1,0,0,1,.19-1.2l3.25-3.28a.65.65,0,0,1,.85,0l2.67,2.67a.59.59,0,0,1,.16.59.6.6,0,0,1-.45.42l-5.63,1.2Zm3-4.05-3,3,5-1.07Z" fill="#ff6c37"/><path d="M50,12.9A5.17,5.17,0,1,0,49,21.06l-3.63-3.63Z" fill="#fff"/><path d="M46.37,22.28a5.66,5.66,0,0,1-4-9.62,5.71,5.71,0,0,1,8,0,.44.44,0,0,1,.16.34.46.46,0,0,1-.16.35l-4.32,4.08,3.28,3.23a.46.46,0,0,1,.14.4.47.47,0,0,1-.22.34,5.64,5.64,0,0,1-2.93.88Zm0-10.34a4.68,4.68,0,1,0,1.87,9l-3.15-3.14a.42.42,0,0,1-.16-.35.4.4,0,0,1,.16-.32l4.16-4.19a4.85,4.85,0,0,0-2.88-1Z" fill="#ff6c37"/><path d="M50.05,13l-4.56,4.53,3.63,3.63a5.63,5.63,0,0,0,1-.75A5.34,5.34,0,0,0,50.05,13Z" fill="#fff"/><path d="M49,21.54a.45.45,0,0,1-.32-.14l-3.62-3.62a.42.42,0,0,1-.16-.35.4.4,0,0,1,.16-.32l4.53-4.45a.49.49,0,0,1,.67-.14.44.44,0,0,1,.13.14,5.6,5.6,0,0,1,.08,7.92l-.08.08a4.66,4.66,0,0,1-1.07.85.44.44,0,0,1-.32,0ZM46.1,17.43l3,3A3.87,3.87,0,0,0,49.7,20a4.68,4.68,0,0,0,1.39-3.33,4.6,4.6,0,0,0-1.15-3Z" fill="#ff6c37"/><path d="M43.35,21a2,2,0,0,0-2.66,0L28.61,33l2,2,12.77-11.2a2,2,0,0,0,0-2.88Z" fill="#fff"/><path d="M30.5,35.51a.48.48,0,0,1-.32-.13l-2-2a.48.48,0,0,1,0-.67l12.08-12a2.46,2.46,0,0,1,4.19,1.81,2.49,2.49,0,0,1-.83,1.76L30.82,35.43a.46.46,0,0,1-.32.08ZM29.09,33l1.33,1.36L43,23.46a1.48,1.48,0,0,0,.51-1.07A1.44,1.44,0,0,0,43,21.3a1.5,1.5,0,0,0-2.11,0Z" fill="#ff6c37"/><path d="M19.25,46.74a.27.27,0,0,0,0,.32l.53,2.32a.7.7,0,0,1-.33.7.65.65,0,0,1-.76-.08L15,46.48,26.42,35h3.95L33,37.67A60.47,60.47,0,0,1,19.25,46.74Z" fill="#fff"/><path d="M19,50.66a1.14,1.14,0,0,1-.8-.35l-3.49-3.49a.42.42,0,0,1-.16-.35.4.4,0,0,1,.16-.32L26.18,34.66a.49.49,0,0,1,.24-.14h4a.58.58,0,0,1,.32,0l2.67,2.67a.44.44,0,0,1,.13.37.39.39,0,0,1-.16.35l-.21.19a65.27,65.27,0,0,1-13.68,8.77L20,49a1.15,1.15,0,0,1-.86,1.38.91.91,0,0,1-.23,0Zm-3.25-4.19,3.14,3.17a.14.14,0,0,0,.21,0,.15.15,0,0,0,0-.18l-.53-2.32a.76.76,0,0,1,.4-.86A65.33,65.33,0,0,0,32.31,37.7l-2.18-2.19H26.55Z" fill="#ff6c37"/><path d="M12.29,49.22,15,46.55l4.1,4.11-6.53-.46a.53.53,0,0,1-.24-1Z" fill="#fff"/><path d="M19.14,51.06l-6.51-.46a1,1,0,0,1-.85-.65A1,1,0,0,1,12,48.9l2.67-2.67a.48.48,0,0,1,.67,0l4.08,4.08a.47.47,0,0,1,0,.53.53.53,0,0,1-.27.22Zm-6.51-1.5,5.34.35L15,47.16Z" fill="#ff6c37"/><path d="M30.74,35.32l-5.39.83,3.12-3.09Z" fill="#fff"/><path d="M25.35,36.66a.45.45,0,0,1-.42-.27.44.44,0,0,1,0-.53L28,32.74a.49.49,0,0,1,.69,0L31,35a.63.63,0,0,1-.37.83l-5.33.83Zm3.12-2.91-1.73,1.73,3-.45Z" fill="#ff6c37"/><path d="M30.74,35.32,27,35.8a.48.48,0,0,1-.45-.8l1.95-1.94Z" fill="#fff"/><path d="M26.87,36.31A1,1,0,0,1,26,35.8a1,1,0,0,1,.16-1.14l1.95-1.95a.51.51,0,0,1,.69,0L31.09,35a.49.49,0,0,1,0,.68.52.52,0,0,1-.31.14l-3.74.48Zm0-1L29.7,35l-1.25-1.26-1.6,1.6ZM50.07,16a.4.4,0,0,0-.5-.16.41.41,0,0,0-.19.22.37.37,0,0,0,0,.29,1.16,1.16,0,0,1-.14,1.2.35.35,0,0,0-.1.25.46.46,0,0,0,.1.26.41.41,0,0,0,.22,0,.34.34,0,0,0,.34-.11A1.82,1.82,0,0,0,50.07,16Z" fill="#ff6c37"/></svg>