<svg id="Layer_1" data-name="Layer 1" xmlns="http://www.w3.org/2000/svg" viewBox="0 0 432.4 445.39"><g id="Layer_3"><path d="M323.2,324.23c2.84-23.6,2-27.06,19.57-23.24l4.46.39c13.52.62,31.2-2.17,41.59-7,22.36-10.38,35.62-27.7,13.57-23.15-50.3,10.38-53.76-6.65-53.76-6.65C401.75,185.77,424,85.74,404.78,61.26,352.51-5.53,262,26.05,260.52,26.87L260,27a179.28,179.28,0,0,0-33.55-3.5c-22.76-.37-40,6-53.14,15.91,0,0-161.4-66.5-153.9,83.62,1.6,31.94,45.78,241.66,98.47,178.31,19.26-23.16,37.88-42.74,37.88-42.74a48.8,48.8,0,0,0,31.91,8.14l.89-.76a35.32,35.32,0,0,0,.36,9c-13.57,15.16-9.58,17.83-36.72,23.41-27.46,5.66-11.33,15.74-.8,18.37,12.77,3.19,42.31,7.72,62.27-20.22l-.79,3.18c5.32,4.26,5,30.62,5.72,49.46s2,36.41,5.85,46.77,8.37,37.05,44,29.4c29.81-6.38,52.6-15.58,54.68-101.1" stroke="#000" stroke-width="37.4"/><path d="M402.39,271.23c-50.3,10.38-53.76-6.65-53.76-6.65C401.75,185.77,424,85.73,404.79,61.25,352.52-5.54,262,26.05,260.53,26.87L260,27a178.47,178.47,0,0,0-33.56-3.5c-22.76-.37-40,6-53.13,15.9,0,0-161.41-66.49-153.9,83.63,1.6,31.94,45.77,241.66,98.47,178.31,19.26-23.16,37.87-42.74,37.87-42.74a48.82,48.82,0,0,0,31.91,8.14l.9-.76a35.32,35.32,0,0,0,.36,9c-13.58,15.16-9.59,17.83-36.72,23.41-27.46,5.66-11.33,15.74-.8,18.37,12.77,3.19,42.31,7.72,62.27-20.22l-.8,3.18c5.32,4.26,9.05,27.72,8.43,49s-1.05,35.86,3.14,47.26,8.37,37.05,44,29.4c29.81-6.38,45.25-22.94,47.4-50.55,1.53-19.63,5-16.73,5.2-34.28l2.76-8.31c3.2-26.61.51-35.2,18.88-31.2l4.46.39c13.52.61,31.21-2.18,41.59-7,22.36-10.38,35.62-27.7,13.57-23.15Z" fill="#336791"/><path d="M215.87,286.48c-1.39,49.52.34,99.38,5.19,111.5s15.22,35.69,50.9,28c29.8-6.39,40.65-18.75,45.36-46,3.46-20.08,10.14-75.85,11-87.28" fill="none" stroke="#fff" stroke-linecap="round" stroke-linejoin="round" stroke-width="12.47"/><path d="M173.1,38.26s-161.52-66-154,84.11C20.69,154.3,64.87,364,117.57,300.68c19.25-23.16,36.67-41.33,36.67-41.33" fill="none" stroke="#fff" stroke-linecap="round" stroke-linejoin="round" stroke-width="12.47"/><path d="M260.35,26.21C254.76,28,350.2-8.68,404.44,60.62,423.6,85.11,401.39,185.14,348.28,264" fill="none" stroke="#fff" stroke-linecap="round" stroke-linejoin="round" stroke-width="12.47"/><path d="M348.28,264s3.46,17,53.77,6.66c22-4.56,8.77,12.77-13.58,23.15-18.35,8.52-59.47,10.7-60.15-1.07-1.73-30.35,21.65-21.13,20-28.74-1.52-6.85-12-13.57-18.89-30.33-6-14.64-82.8-126.85,21.29-110.19,3.81-.79-27.15-99-124.56-100.6S131.93,142.6,131.93,142.6" fill="none" stroke="#fff" stroke-linecap="round" stroke-linejoin="bevel" stroke-width="12.47"/><path d="M188.6,274.33C175,289.5,179,292.16,151.88,297.75c-27.46,5.66-11.32,15.73-.8,18.37,12.77,3.19,42.31,7.71,62.27-20.23,6.08-8.51,0-22.09-8.38-25.55-4-1.67-9.43-3.76-16.37,4Z" fill="none" stroke="#fff" stroke-linecap="round" stroke-linejoin="round" stroke-width="12.47"/><path d="M187.71,274.07c-1.36-8.92,2.93-19.53,7.54-31.94,6.92-18.63,22.89-37.26,10.12-96.34-9.52-44-73.4-9.16-73.44-3.19s2.89,30.26-1.06,58.54c-5.17,36.92,23.48,68.14,56.47,64.94" fill="none" stroke="#fff" stroke-linecap="round" stroke-linejoin="round" stroke-width="12.47"/><path d="M172.52,141.7c-.29,2,3.73,7.48,9,8.21s9.72-3.52,10-5.56-3.73-4.29-9-5-9.72.34-10,2.37Z" fill="#fff" stroke="#fff" stroke-width="4.16"/><path d="M331.94,137.54c.29,2-3.73,7.48-9,8.21s-9.71-3.52-10-5.56,3.74-4.28,9-5,9.72.33,10,2.36Z" fill="#fff" stroke="#fff" stroke-width="2.08"/><path d="M350.68,123.43c.86,16-3.45,26.89-4,43.92-.81,24.74,11.8,53.07-7.19,81.43" fill="none" stroke="#fff" stroke-linecap="round" stroke-linejoin="round" stroke-width="12.47"/></g></svg>