<svg id="Layer_1" data-name="Layer 1" xmlns="http://www.w3.org/2000/svg" viewBox="0 0 512 512"><rect width="512" height="512" fill="#fff"/><path d="M70.07,292.43c-4.33-1.63-9.21-.72-11.2,2-1.18,1.73-1.08,4.74.35,7.6a24.17,24.17,0,0,0,7.89,8.29,12.68,12.68,0,0,0,7,1.82,7.38,7.38,0,0,0,4.73-2.87C81.74,304.45,76.82,294.93,70.07,292.43Z" fill="#2376bc"/><path d="M94,298.31a17,17,0,0,0,7.17-3.39,12.47,12.47,0,0,0,3.56-7.11,14.83,14.83,0,0,0-8.21-14.21,10.65,10.65,0,0,0-4.65-1c-10.33-.45-15.74,8.48-10.92,18.12C83.69,296.24,88.94,299.25,94,298.31Z" fill="#2376bc"/><path d="M110.76,192.87c-.78,3.09,1.19,6.61,4.47,8.29a7.78,7.78,0,0,0,4.46.91,8.42,8.42,0,0,0,4.74-1c4.5-2.16,6.62-5.92,5.54-9.84a7.61,7.61,0,0,0-4.93-4.74,10.4,10.4,0,0,0-6.15,0C114.58,187.58,111.52,190,110.76,192.87Z" fill="#2376bc"/><path d="M92.66,232a13.1,13.1,0,0,0,3.12,12.73,11.67,11.67,0,0,0,8.93,4c7.91.36,14-4.18,15.21-11.31A14,14,0,0,0,110.67,222a14.45,14.45,0,0,0-18,9.75A1.6,1.6,0,0,0,92.66,232Z" fill="#2376bc"/><path d="M109.44,177.85c1.62.85,2,.91,4.56.81a9.15,9.15,0,0,0,4.09-.84c2.22-1.18,3.79-3.46,3.27-4.74a4,4,0,0,0-1.73-1.18,12.76,12.76,0,0,0-5.15-.9,22.2,22.2,0,0,0-4.39.19c-3.07,1-4,2.46-3.07,4.55A4.72,4.72,0,0,0,109.44,177.85Z" fill="#2376bc"/><path d="M227.57,311.62c4.88,1.56,6.65,1.82,13.68,1.78,8.67,0,13.27-.81,19.65-3.45l2.37-1V294.67l-1.7.95a32.38,32.38,0,0,1-14.92,3.87c-10.58.46-16.48-2.8-18.4-10.16a18.61,18.61,0,0,1-.5-2.68v-.78h41.12l-.13-6.32-.1-6.31.6,1.45c2.14,5.48,7.55,9.23,18.62,12.87,6.26,2.05,8.9,3.56,9.55,5.61.89,2.71-.71,5-4.17,6.09-5.92,1.86-14.1.75-21.69-3a30.11,30.11,0,0,0-3.56-1.6,65.83,65.83,0,0,0-.22,7.82v7.79l2.54.8a56,56,0,0,0,18.95,2.37c17.08-.71,27-8.29,27-20.65,0-5.41-1.19-8.54-4.74-12-2.87-2.83-6.64-4.86-13.71-7.3-6.09-2.12-8.06-3-9.48-4.43a4.07,4.07,0,0,1-.42-5.74,4.23,4.23,0,0,1,.91-.78c2-1.3,4-1.75,7.72-1.75A32,32,0,0,1,310.47,264a13.32,13.32,0,0,0,1.72.78c.1,0,.16-3.35.16-7.49v-7.46l-1.36-.4c-.76-.18-2.84-.65-4.63-1-13.81-2.67-26.71-.23-33.23,6.35a15.65,15.65,0,0,0-5.15,12v2.54l-.72-2.54A25.53,25.53,0,0,0,247.13,248c-9.12-1.73-17.89-.17-24.64,4.39a38.1,38.1,0,0,0-8.65,8.54c-5,7.53-6.75,18.6-4.6,29.38C211.24,300.73,218,308.55,227.57,311.62Zm.62-40.54a16.68,16.68,0,0,1,3.87-6.94,10.51,10.51,0,0,1,4.95-3.22,13.93,13.93,0,0,1,7.46.52c3.76,1.63,6.07,5.92,6.07,11.18v1.18H239.13c-12.93.05-11.79.35-11-2.72Z" fill="#2376bc"/><path d="M162.87,312V278l3.71.16c3.25.17,3.88.26,5.41,1.11a19.37,19.37,0,0,1,5.92,6c.65,1,4.52,7.33,8.63,14.1s7.59,12.41,7.79,12.48,5.37.1,11.5,0l11.17-.09-9.12-14.31c-5-7.85-10.06-15.48-11.24-17a27.91,27.91,0,0,0-7.85-7.23l-1.79-1,2.37-.89c6.25-2.28,11.84-7.11,14.5-12.25a23.64,23.64,0,0,0,2.67-11.7c0-6.81-1.86-11.95-5.69-15.87-3.4-3.38-7.7-5.5-14.4-7-3.07-.73-4-.75-23.3-.86L143,223.59v88.33H162.9Zm0-61.11V238.61l6.94.13c8.43.2,10.06.61,12.8,3.36,2.18,2.18,2.9,4.17,2.87,8.17a8.78,8.78,0,0,1-1.19,5.44,12.58,12.58,0,0,1-9.47,7.1,57.52,57.52,0,0,1-6.94.36h-5Z" fill="#2376bc"/><path d="M50.82,205.58c1.33,1.18,2.93,1.11,5.37-.13,4.11-2,10-8.11,12.19-12.51A8.42,8.42,0,0,0,69,186.4c-.43-.92-1-1-3-.37-7.43,2.37-16.13,11.53-16.13,17C49.81,204.54,49.94,204.83,50.82,205.58Z" fill="#2376bc"/><path d="M64.41,208a17.34,17.34,0,0,0-11.57,17.23c.43,5.77,3.95,8.89,8.84,7.89,7.33-1.53,12.73-8.71,12.73-16.95,0-2.7-.1-3.32-.88-4.88a6.15,6.15,0,0,0-3.81-3.55A8.13,8.13,0,0,0,64.41,208Z" fill="#2376bc"/><path d="M91.09,195.47c-6.16,2.19-10.1,7-10.1,12.44a7.29,7.29,0,0,0,1,4.28c2.37,4.74,8.39,5.92,14.62,2.89a13,13,0,0,0,7.59-10.92,16,16,0,0,0-.22-3.78,7.71,7.71,0,0,0-4-4.89A12.3,12.3,0,0,0,91.09,195.47Z" fill="#2376bc"/><path d="M41.08,253.43A13.75,13.75,0,0,0,44.27,247c2.19-8.51.16-18.42-4.1-20.21-1.47-.61-2-.58-3.68.26-4.31,2.16-6.85,13.1-4.73,21.18C33.42,254.64,37.62,257,41.08,253.43Z" fill="#2376bc"/><path d="M83.63,187.84a15.29,15.29,0,0,0,7.52-2.05c3.63-1.76,7.56-5.47,8.18-7.68.35-1.19.35-1.54-.16-2.19a3.21,3.21,0,0,0-1.34-1.11c-3.26-1.24-13,1.7-17,5.05C76.43,183.67,77.89,187.88,83.63,187.84Z" fill="#2376bc"/><path d="M64.86,243.4C59,250,61.4,262.9,69.2,266.73a6.93,6.93,0,0,0,4.73.88,9.89,9.89,0,0,0,4.8-1.18,14.4,14.4,0,0,0,7.55-10.59c1.25-7.11-2.53-14.57-8.29-16.33A13.12,13.12,0,0,0,64.86,243.4Z" fill="#2376bc"/><path d="M40,267.8a19.14,19.14,0,0,0,2.48,9.25c3.22,6.62,8.56,9.87,12.93,7.94,2.93-1.3,4.33-4.73,4.07-10.12a17.68,17.68,0,0,0-3.66-10c-1.69-2.37-4.74-4.82-6.61-5.34a6.74,6.74,0,0,0-5.15.46C41.34,261.25,40,263.8,40,267.8Z" fill="#2376bc"/><path d="M406.88,341V304.82l2.71,2.73a15.49,15.49,0,0,0,5.1,3.92,22.88,22.88,0,0,0,11.41,2.09,24.55,24.55,0,0,0,10.75-2.74c2.71-1.3,3.5-1.89,6.36-4.73a28.38,28.38,0,0,0,7.2-11.24c3.74-10,3.48-24-.69-33.43a22.66,22.66,0,0,0-16.65-13.56c-6.94-1.19-13.09-.3-18,2.6a34.74,34.74,0,0,0-7.18,6.62l-1,1.3v-9.55H387.37V341h19.54Zm.43-67.66c1.37-5.08,4.37-8.74,8.46-10.24a12.07,12.07,0,0,1,5-.55,10,10,0,0,1,5.45,1.18,9.71,9.71,0,0,1,4.91,5.12c1.37,2.9,1.66,4.85,1.66,10.58s-.55,8.64-2.31,12.13a14.62,14.62,0,0,1-5.34,5.64,12.21,12.21,0,0,1-16-4.08c-2-3.12-2.36-5-2.36-11.73C406.75,276.69,406.88,274.87,407.31,273.31Z" fill="#2376bc"/><path d="M469.93,313.38c4.62,0,8.11-1.82,10.06-5.3.95-1.66,1-2,1-4.9,0-2.53-.13-3.31-.72-4.39A13.43,13.43,0,0,0,475,294a11.61,11.61,0,0,0-4.63-.78c-4.24-.13-6.06.48-8.7,2.92a8.4,8.4,0,0,0-3,6.29,8.63,8.63,0,0,0,2.83,7.66A10.63,10.63,0,0,0,469.93,313.38Z" fill="#2376bc"/><path d="M462.05,284.62h7.85l7.89-.11,1-26.05c.59-14.33,1.11-28,1.18-30.39l.19-4.3H459.68v1c0,2.28,2,55.28,2.16,57.53Z" fill="#2376bc"/><path d="M325.07,308.1c3.46,3.46,7.46,5.06,13.56,5.41a21.78,21.78,0,0,0,19.52-9.06l1.49-2v9.48h19.52V248.78h-9.68l-9.71.1-.13,20.41-.17,20.36-.78,2a11,11,0,0,1-2.6,3.78c-2.31,2.37-4.3,3.07-8,3q-8.43,0-9.9-9.25c-.23-1.3-.36-9.47-.36-21.31V248.78h-9.58c-5.28,0-9.67.1-9.78.23-.35.35-.26,38.7.13,42.73C319.31,299.21,321.37,304.39,325.07,308.1Z" fill="#2376bc"/></svg>