<svg id="Layer_1" data-name="Layer 1" xmlns="http://www.w3.org/2000/svg" viewBox="0 0 885 1024"><g id="BASE"><path d="M373.2,977.7l14.8-3-10-25.5L395,961l-8.4-35,11.2,12.4-1.6-157.1L290.2,755,145,634.6l-8.8-36.8-31.8-3.6L52.1,569.6,1.8,501.5l.6-60.7L45.2,380l3.2-1.3L18.5,338.3l.6-52,36.6-52,70.8-29.8h2.4l.1-9.2L215.4,72.6l167-70.1L504.7,4.4,642.4,59.7l97,135.6L723.9,326l33.2-.5,82.7,34.7L882.6,421l.6,60.7-50.3,68.1-52.3,24.6L748.8,578,740,614.8,594.8,735.3,493.1,760.5V923.9l13.1-14.2-7.7,39.8,16.8-20.4-19.4,42.2,26.5,6.3-69.8,43.7ZM216.1,589.4l58.6,33.2,59.9,50.2h60.6l-.4-44.4-45.4-11.2L267.1,549l-39.8,37.9Zm297.4-83.3L493,562.4V653h57.4l60-50.2,58.5-33.1-11.3-2.6-67.8-64.6-2-16.8-4.8,4.5Zm-217.3,6.7,43.6,24.7L376,567.8h29.1L417,514.6l-82.1-9.3-35.8-16.9Z" fill="#3fab38"/><path d="M382.5,3l122,1.9L642,60.1l96.8,135.3-15.3,130-.1,1.1h1.1L757,326l82.5,34.7,42.6,60.5.6,60.4-50.1,67.9L780.5,574l-31.4,3.6-.7.1-.2.7-8.8,36.3L594.6,734.9,493.3,760l-.8.2v165l1.7-1.9,11.1-12-7,36.2-.8,3.9,2.5-3,13-15.9-17.5,38.1-.5,1.1,1.2.3,24.7,5.8-68.5,43L374.6,978l12.9-2.7,1.2-.2-.4-1.1-9.2-23.4,14.6,10.1,2.1,1.5-.6-2.5-7.6-31.8,9,10,1.8,2v-2.7l-1.5-155.4V781l-.8-.2L290.5,754.6l-145-120.3L136.8,598l-.2-.7-.7-.1-31.4-3.6L52.4,569.1,2.2,501.3l.6-60.4,42.6-60.5,2.5-1,1.2-.5-.8-1L19,338.1l.5-51.6L56,234.7,126.6,205h2.8v-1l.1-8.6L215.7,73,382.5,3M582.9,489.8l-69.2,15.8-.5.1-.2.5-20.4,56-.1.2v91.2h58l.3-.2,59.8-50.1L668,570.8l2.2-1.3-2.5-.6-9.9-2.3-67.5-64.4-1.8-15.6-.2-2-1.5,1.4-3.9,3.8M339.5,537.9l36.1,30.2.3.2h29.7l.2-.8,11.7-52.3.2-1.1-1.1-.1-81.5-9.3L300,488.2l-1.3-.6-.1,1.4-2.8,23.4-.1.7.6.3,43.2,24.5M227.1,586.3l-9.9,2.2-2.5.6,2.2,1.3,57.4,32.5L334.1,673l.3.2h61.3v-1l-.4-43.5V628l-.8-.2-44.9-11.1-81.8-67.9-.7-.6-.6.6-39.4,37.5M382.3,2,215.1,72.2l-86.6,123-.1,8.9h-2L55.3,233.9,18.5,286.1,18,338.4l29.6,40-2.7,1.1-43,61-.6,61L51.7,570l52.5,24.7,31.6,3.6,8.8,36.6L290,755.5l105.8,26.2,1.5,155.4-11.6-12.9,8.6,35.7-17.3-12,10.4,26.4-15.6,3.2,80.8,44.5,71-44.5-27.1-6.4,20.8-45.2-18,21.8,7.7-39.6-13.4,14.5V760.9L595,735.8,740.4,615.2l8.8-36.6,31.6-3.6,52.5-24.7,50.5-68.4-.6-61-43-61-83-34.9-32.7.5,15.4-130.4L642.6,59.3,504.7,3.9ZM493.5,652.5v-90l20.4-56,69.5-15.8,4.1-3.9,1.9,16,68,64.8,10.1,2.3-57.4,32.6-59.8,50.1H493.5ZM376.2,567.3,340.1,537l-43.3-24.5,2.7-23.4,35.3,16.6,81.7,9.3-11.7,52.3ZM334.8,672.2l-59.9-50.1-57.4-32.5,10.1-2.3,39.5-37.7,82,68,45.1,11.2.4,43.5Z" fill="#060d14"/><polygon points="269.4 547.4 318.1 563.1 285 532.5 269.4 547.4" fill="#8a5545"/><polygon points="285 532.5 318.1 563.1 340.1 537 296.8 512.5 295.6 522.4 285 532.5" fill="#7f4f41"/><polygon points="318.1 563.1 349.2 617.6 376.2 567.3 340.1 537 318.1 563.1" fill="#6e3c2f"/><polygon points="269.4 547.4 267.1 549.5 349.2 617.6 318.1 563.1 269.4 547.4" fill="#7f4f41"/><polygon points="394.1 617.6 349.2 617.6 394.3 628.8 394.1 617.6" fill="#6e3c2f"/><polygon points="128.2 229.6 127.4 229.6 61.3 260.3 127.7 271 128.2 229.6" fill="#2d8234"/><polygon points="127.5 292.2 127.7 271 61.3 260.3 29 297.8 80.8 340.2 127.5 292.2" fill="#23642c"/><polygon points="127.2 318.1 127.5 292.2 80.8 340.2 121.3 347.5 127.8 344.7 147.1 345 127.2 318.1" fill="#389936"/><polygon points="29 297.8 64.9 371.1 75.5 366.7 80.8 340.2 29 297.8" fill="#1d5427"/><polygon points="75.5 366.7 121.3 347.5 80.8 340.2 75.5 366.7" fill="#32842f"/><polygon points="127.4 229.6 126.4 204 55.4 233.9 61.3 260.3 127.4 229.6" fill="#23642c"/><polygon points="61.3 260.3 55.4 233.9 18.6 286.1 29 297.8 61.3 260.3" fill="#1d5427"/><polygon points="64.9 371.1 29 297.8 18.6 286.1 18 338.4 58.7 373.8 64.9 371.1" fill="#1a4f24"/><polygon points="499.4 947.8 507 908.2 493.6 922.7 493.6 954.8 499.4 947.8" fill="#1d5427"/><polygon points="404.7 567.3 394.1 614.7 423.4 721.5 423.4 721.5 423.4 721.5 488.9 960.4 491 957.9 432 516.8 416.4 515 404.7 567.3" fill="#7f4f41"/><polygon points="461.6 701.8 490.1 652.5 493.5 652.5 493.5 562.5 513.9 506.5 456.7 519.6 432 516.8 491 957.9 493.6 954.8 493.6 922.7 493.6 760.9 595 735.8 467.8 735.8 461.6 701.8" fill="#6e3c2f"/><polygon points="421 940.6 455.2 1001.5 482 938.1 488.7 960.7 488.9 960.4 423.4 721.5 423.4 721.5 423.4 721.5 394.1 614.7 404.7 567.3 376.2 567.3 349.2 617.6 394.1 617.6 394.3 628.8 394.7 672.2 334.8 672.2 290 755.5 417.2 755.5 405.8 784.2 395.8 781.7 397.3 937.1 416.5 958.5 421 940.6" fill="#8a5545"/><polygon points="491 957.9 488.9 960.4 488.7 960.7 482 938.1 455.2 1001.5 421 940.6 416.5 958.5 397.3 937.1 385.7 924.2 394.3 959.9 377 947.8 387.4 974.3 371.8 977.5 452.6 1022 523.6 977.5 496.5 971.1 517.3 925.9 499.4 947.8 493.6 954.8 491 957.9" fill="#389936"/><polygon points="605.5 72.2 384.5 62.1 229 134.4 427 166.2 605.5 72.2" fill="#2d8234"/><polygon points="427 166.2 229 134.4 153 222.7 274.9 322.5 427 166.2" fill="#23642c"/><polygon points="437.6 351.4 571.9 296.5 427 166.2 274.9 322.5 437.6 351.4" fill="#389936"/><polygon points="263 381.6 274.9 322.5 153 222.7 219.4 358 257 373.2 263 381.6" fill="#1d5427"/><polygon points="350.1 446.2 446.4 464.3 437.6 351.4 274.9 322.5 263 381.6 302.9 437.3 350.1 446.2" fill="#32842f"/><polygon points="446.4 464.3 545.4 441.1 571.9 296.5 437.6 351.4 446.4 464.3" fill="#379334"/><polygon points="545.4 441.1 580.2 425 587.5 486.8 589.4 502.7 676.2 542.9 663.1 471.1 579.8 420.9 628 353.5 696.4 326 724.5 325.5 739.8 195.2 571.9 296.5 545.4 441.1" fill="#389936"/><polygon points="739.8 195.2 642.6 59.3 605.5 72.2 739.8 195.2" fill="#379334"/><polygon points="384.5 62.1 382.3 2 215.1 72.2 229 134.4 384.5 62.1" fill="#23642c"/><polygon points="229 134.4 215.1 72.2 128.5 195.2 153 222.7 229 134.4" fill="#1d5427"/><polygon points="305.2 440.6 299.5 489.1 334.8 505.7 350.1 446.2 302.9 437.3 305.2 440.6" fill="#1a4f24"/><polygon points="127.7 271 127.5 292.2 127.2 318.1 158.4 345.2 188.6 345.7 219.4 358 153 222.7 128.5 195.2 128.4 204.1 128.2 229.6 127.7 271" fill="#1a4f24"/><polygon points="158.4 345.2 127.2 318.1 147.1 345 158.4 345.2" fill="#23642c"/><polygon points="446.4 464.3 350.1 446.2 334.8 505.7 416.4 515 432 516.8 456.7 519.6 513.9 506.5 583.4 490.7 446.4 464.3" fill="#389936"/><polygon points="583.4 490.7 587.5 486.8 580.2 425 545.4 441.1 446.4 464.3 583.4 490.7" fill="#32842f"/><polygon points="168.5 600.7 164.7 601.6 135.8 598.3 144.6 634.9 238.6 665.3 168.5 600.7" fill="#8a5545"/><polygon points="168.5 600.7 238.6 665.3 274.9 622.1 217.5 589.6 168.5 600.7" fill="#7f4f41"/><polygon points="274.9 622.1 238.6 665.3 290 755.5 334.8 672.2 274.9 622.1" fill="#6e3c2f"/><polygon points="144.6 634.9 290 755.5 238.6 665.3 144.6 634.9" fill="#7f4f41"/><polygon points="417.2 755.5 290 755.5 395.8 781.7 405.8 784.2 417.2 755.5" fill="#6e3c2f"/><polygon points="238.6 379.6 128.9 374.5 51.7 410.4 150 426.2 238.6 379.6" fill="#2d8234"/><polygon points="150 426.2 51.7 410.4 14 454.2 74.5 503.8 150 426.2" fill="#23642c"/><polygon points="150 426.2 74.5 503.8 155.2 518.1 221.9 490.9 150 426.2" fill="#389936"/><polygon points="14 454.2 64 556.2 74.5 503.8 14 454.2" fill="#1d5427"/><polygon points="159.6 574.1 155.2 518.1 74.5 503.8 64 556.2 111.8 565.2 159.6 574.1" fill="#32842f"/><polygon points="221.9 490.9 155.2 518.1 159.6 574.1 208.8 562.6 221.9 490.9" fill="#379334"/><polygon points="221.9 490.9 208.8 562.6 295.6 522.4 296.8 512.5 299.5 489.1 305.2 440.6 221.9 490.9" fill="#389936"/><polygon points="302.9 437.3 263 381.6 257 373.2 238.6 379.6 305.2 440.6 302.9 437.3" fill="#379334"/><polygon points="128.9 374.5 127.8 344.7 121.3 347.5 75.5 366.7 64.9 371.1 58.7 373.8 18 338.4 47.6 378.4 44.9 379.6 51.7 410.4 128.9 374.5" fill="#23642c"/><polygon points="51.7 410.4 44.9 379.6 1.9 440.6 14 454.2 51.7 410.4" fill="#1d5427"/><polygon points="14 454.2 1.9 440.6 1.3 501.6 64 556.2 14 454.2" fill="#1a4f24"/><polygon points="64 556.2 51.7 570 104.2 594.7 111.8 565.2 64 556.2" fill="#1a4f24"/><polygon points="64 556.2 1.3 501.6 51.7 570 64 556.2" fill="#23642c"/><polygon points="168.5 600.7 217.5 589.6 227.6 587.2 159.6 574.1 111.8 565.2 104.2 594.7 135.8 598.3 164.7 601.6 168.5 600.7" fill="#389936"/><polygon points="269.4 547.4 285 532.5 295.6 522.4 208.8 562.6 159.6 574.1 227.6 587.2 267.1 549.5 269.4 547.4" fill="#32842f"/><polygon points="716.5 581 646.4 645.6 740.4 615.2 749.2 578.6 720.3 581.9 716.5 581" fill="#8a5545"/><polygon points="646.4 645.6 716.5 581 667.5 569.8 610.1 602.4 646.4 645.6" fill="#7f4f41"/><polygon points="610.1 602.4 550.2 652.5 595 735.8 646.4 645.6 610.1 602.4" fill="#6e3c2f"/><polygon points="493.5 652.5 490.1 652.5 461.6 701.8 467.8 735.8 595 735.8 550.2 652.5 493.5 652.5" fill="#8a5545"/><polygon points="595 735.8 740.4 615.2 646.4 645.6 595 735.8" fill="#7f4f41"/><polygon points="833.3 390.7 756.1 354.8 646.4 359.9 735 406.5 833.3 390.7" fill="#2d8234"/><polygon points="810.5 484.1 871 434.5 833.3 390.7 735 406.5 810.5 484.1" fill="#23642c"/><polygon points="810.5 484.1 735 406.5 663.1 471.1 729.8 498.4 810.5 484.1" fill="#389936"/><polygon points="821 536.5 871 434.5 810.5 484.1 821 536.5" fill="#1d5427"/><polygon points="729.8 498.4 725.4 554.4 773.2 545.4 821 536.5 810.5 484.1 729.8 498.4" fill="#32842f"/><polygon points="729.8 498.4 663.1 471.1 676.2 542.9 725.4 554.4 729.8 498.4" fill="#379334"/><polygon points="628 353.5 579.8 420.9 646.4 359.9 628 353.5" fill="#379334"/><polygon points="833.3 390.7 840.2 359.9 757.2 325 756.1 354.8 833.3 390.7" fill="#23642c"/><polygon points="871 434.5 883.1 420.9 840.2 359.9 833.3 390.7 871 434.5" fill="#1d5427"/><polygon points="773.2 545.4 780.8 575 833.3 550.3 821 536.5 773.2 545.4" fill="#1a4f24"/><polygon points="821 536.5 883.7 481.9 883.1 420.9 871 434.5 821 536.5" fill="#1a4f24"/><polygon points="833.3 550.3 883.7 481.9 821 536.5 833.3 550.3" fill="#23642c"/><polygon points="725.4 554.4 657.4 567.5 667.5 569.8 716.5 581 720.3 581.9 749.2 578.6 780.8 575 773.2 545.4 725.4 554.4" fill="#389936"/><polygon points="725.4 554.4 676.2 542.9 589.4 502.7 657.4 567.5 725.4 554.4" fill="#32842f"/></g></svg>