<svg id="Layer_1" data-name="Layer 1" xmlns="http://www.w3.org/2000/svg" viewBox="0 0 720 1024"><g id="BASE"><polygon points="411.8 623.5 400.8 617.5 400.9 574.9 396.1 553.4 362.7 548.7 282.5 1001.1 415.4 639.8 411.8 623.5" fill="#7f4f41"/><polygon points="288.2 817.7 282.5 1001.1 362.7 548.7 303.4 540.4 285.9 549.9 295.7 577 294.1 627.7 308 628.9 322 681.6 319.2 680.4 167.4 616.8 161.4 592.5 134.4 588.7 134.4 649.5 290.2 751.9 289.2 785.9 288.2 817.7" fill="#6e3c2f"/><polygon points="411.2 1001.4 413 848.6 412.5 849 384.3 819 412 714.7 414.5 714.5 415.4 639.8 282.5 1001.1 349.6 1022 411.2 1001.4" fill="#8a5545"/><polygon points="595.3 378.4 423.5 172.1 424 402.5 595.3 378.4" fill="#23642c"/><polygon points="643.9 52.2 286.9 2 66.5 121.9 423.5 172.1 643.9 52.2" fill="#379334"/><polygon points="400.9 554.1 401.2 405.6 424 402.5 423.5 172.1 318.9 364.1 319.2 531.8 303.4 540.4 362.7 548.7 396.1 553.4 400.9 554.1" fill="#389936"/><polygon points="134.9 294.1 66.5 121.9 66.9 322.6 122.5 292.3 134.9 294.1" fill="#2d8234"/><polygon points="318.8 319.9 318.9 364.1 423.5 172.1 66.5 121.9 134.9 294.1 318.8 319.9" fill="#3fab38"/><polygon points="595.3 378.4 597.5 378.1 644.5 403.7 643.9 52.2 423.5 172.1 595.3 378.4" fill="#32842f"/><polygon points="552.6 702.5 398 767.3 412 714.7 384.3 819 412.5 849 413 848.6 449.3 824.8 482.5 803 585.6 735.3 585.6 674.5 558.6 678.3 552.6 702.5" fill="#6e3c2f"/><polygon points="412 714.7 398 767.3 552.6 702.5 414.5 714.5 412 714.7" fill="#613528"/><polygon points="411.8 623.5 522 683.4 522.3 471.6 400.8 617.5 411.8 623.5" fill="#23642c"/><polygon points="595.3 378.4 424 402.5 401.2 405.6 522.3 471.6 718.6 444 644.5 403.7 597.5 378.1 595.3 378.4" fill="#379334"/><polygon points="522 683.4 558.6 678.3 585.6 674.5 629.5 668.3 522.3 471.6 522 683.4" fill="#379334"/><polygon points="718.2 655.8 718.6 444 629.5 668.3 718.2 655.8" fill="#379334"/><polygon points="629.5 668.3 629.5 668.3 629.5 668.3 718.6 444 522.3 471.6 629.5 668.3" fill="#3fab38"/><polygon points="400.9 574.9 400.8 617.5 522.3 471.6 401.2 405.6 400.9 554.1 400.9 574.9" fill="#2d8234"/><polygon points="319.2 680.4 322 681.6 308 628.9 294.1 627.7 167.4 616.8 319.2 680.4" fill="#613528"/><polygon points="197.6 385.8 198 597.7 285.9 549.9 303.4 540.4 319.2 531.8 197.6 385.8" fill="#23642c"/><polygon points="318.8 319.9 134.9 294.1 122.5 292.3 66.9 322.6 1.4 358.2 197.6 385.8 318.8 319.9" fill="#389936"/><polygon points="1.8 570.1 90.5 582.6 1.4 358.2 1.8 570.1" fill="#389936"/><polygon points="198 597.7 197.6 385.8 90.5 582.6 134.4 588.7 161.4 592.5 198 597.7" fill="#389936"/><polygon points="1.4 358.2 90.5 582.6 197.6 385.8 1.4 358.2" fill="#3fab38"/><polygon points="318.9 364.1 318.8 319.9 197.6 385.8 319.2 531.8 318.9 364.1" fill="#2d8234"/></g></svg>