<svg id="Layer_1" data-name="Layer 1" xmlns="http://www.w3.org/2000/svg" viewBox="0 0 560 1024"><g id="BASE"><polygon points="519.8 547.5 538.1 528.4 538.1 423.4 500.9 394.4 507.5 387.7 507.5 294.7 457.1 256.7 477.5 236 477.5 154.9 274.5 2 66.1 190.4 66.1 242.9 93.5 281.6 82.5 293.4 82.5 293.4 36 335.5 36 395.5 61.9 432 21.9 469.4 21.9 537.2 51.6 580.5 44.2 587.4 44.2 587.4 0.8 627.9 0.8 701.3 38.1 755.5 236.5 809.1 236.5 994.5 280.4 1022 346.2 985.7 347.1 917.3 350.1 912.5 350.1 804 498.3 755.5 559.2 691.7 559.2 578.1 519.8 547.5" fill="#3fab38" stroke="#060d14" stroke-miterlimit="10"/><polygon points="346.2 985.7 347.1 917.3 280.4 1022 346.2 985.7" fill="#7f4f41"/><polygon points="236.5 809.1 236.5 994.5 280.4 1022 276.6 819.9 236.5 809.1" fill="#6e3c2f"/><polygon points="276.6 819.9 280.4 1022 347.1 917.3 350.1 912.5 350.1 804 290.3 823.6 276.6 819.9" fill="#8a5545"/><polygon points="500.4 682.3 460.3 623.5 285.4 681.7 285.9 760.9 500.4 682.3" fill="#379334"/><polygon points="52.3 701.3 102.6 627.9 44.2 587.4 0.8 627.9 52.3 701.3" fill="#51af3d"/><polygon points="0.8 627.9 0.8 701.3 38.1 755.5 52.3 701.3 0.8 627.9" fill="#389936"/><polygon points="290.3 823.6 285.9 760.9 52.3 701.3 38.1 755.5 236.5 809.1 276.6 819.9 290.3 823.6" fill="#379334"/><polygon points="285.9 760.9 290.3 823.6 350.1 804 498.3 755.5 500.4 682.3 285.9 760.9" fill="#2d8234"/><polygon points="498.3 755.5 559.2 691.7 559.2 578.1 500.4 682.3 498.3 755.5" fill="#1a4f24"/><polygon points="483.8 519.7 447.8 466.9 285 523.2 285 523.2 285.4 592.4 483.8 519.7" fill="#379334"/><polygon points="106.4 483.4 106.4 483.4 47.6 445.3 61.9 432 21.9 469.4 69.4 537.2 106.4 483.4" fill="#51af3d"/><polygon points="56.4 587.4 69.4 537.2 21.9 469.4 21.9 537.2 51.6 580.5 52.3 579.9 56.4 587.4" fill="#389936"/><polygon points="69.4 537.2 56.4 587.4 289.5 650.3 285.4 592.4 69.4 537.2" fill="#379334"/><polygon points="285.4 592.4 289.5 650.3 481.8 587.4 483.8 519.7 285.4 592.4" fill="#2d8234"/><polygon points="481.8 587.4 519.8 547.5 538.1 528.4 538.1 423.4 483.8 519.7 481.8 587.4" fill="#1a4f24"/><polygon points="457.9 380 415.5 319.7 410.8 322.8 283.7 364 276.3 361.8 276.7 444.3 457.9 380" fill="#379334"/><polygon points="132.8 320.2 132.8 320.2 82.5 293.4 36 335.5 79.4 395.5 132.8 320.2" fill="#51af3d"/><polygon points="79.4 395.5 36 335.5 36 395.5 61.9 432 67.5 439.9 79.4 395.5" fill="#389936"/><polygon points="79.4 395.5 67.5 439.9 280.5 495.6 276.7 444.3 79.4 395.5" fill="#379334"/><polygon points="276.7 444.3 280.5 495.6 456.1 439.9 457.9 380 276.7 444.3" fill="#2d8234"/><polygon points="456.1 439.9 500.4 395 500.4 395 500.9 394.4 507.5 387.7 507.5 294.7 457.9 380 456.1 439.9" fill="#1a4f24"/><polygon points="434.2 229.3 274.5 2 276.1 285.4 434.2 229.3" fill="#379334"/><polygon points="274.5 2 66.1 190.4 104 242.9 274.5 2" fill="#51af3d"/><polygon points="66.1 190.4 66.1 242.9 93.5 281.6 104 242.9 66.1 190.4" fill="#389936"/><polygon points="276.1 285.4 104 242.9 93.5 281.6 279.4 330.2 276.1 285.4" fill="#379334"/><polygon points="276.1 285.4 279.4 330.2 432.6 281.6 434.2 229.3 276.1 285.4" fill="#2d8234"/><polygon points="477.5 154.9 274.5 2 434.2 229.3 477.5 154.9" fill="#23642c"/><polygon points="432.6 281.6 457.1 256.7 477.5 236 477.5 154.9 434.2 229.3 432.6 281.6" fill="#1a4f24"/><polygon points="132.8 320.2 276.3 361.8 283.7 364 410.8 322.8 415.5 319.7 457.9 380 507.5 294.7 457.1 256.7 432.6 281.6 279.4 330.2 93.5 281.6 82.5 293.4 82.5 293.4 132.8 320.2" fill="#23642c"/><polygon points="106.4 483.4 106.4 483.4 285 523.2 285 523.2 447.8 466.9 483.8 519.7 538.1 423.4 500.9 394.4 500.4 395 500.4 395 456.1 439.9 280.5 495.6 67.5 439.9 61.9 432 47.6 445.3 106.4 483.4" fill="#23642c"/><polygon points="102.6 627.9 285.4 681.7 285.4 681.7 460.3 623.5 500.4 682.3 559.2 578.1 519.8 547.5 481.8 587.4 289.5 650.3 56.4 587.4 52.3 579.9 51.6 580.5 44.2 587.4 44.2 587.4 102.6 627.9" fill="#23642c"/></g></svg>