<svg id="Layer_1" data-name="Layer 1" xmlns="http://www.w3.org/2000/svg" viewBox="0 0 64 64"><path d="M52.43,16.22c1.84-.08,3.67-.19,5.5-.25,1.44,0,1.78-.23,2.31-1.56Q62.13,9.64,64,4.85H14.18c-1.91.78-2.8,2.44-3.59,4.17-.58,1.28-.12,2,1.26,2h5.26c-1.76.57-2.64,2-3.46,3.48-.52.93-.14,1.62.86,1.62,2.53,0,5.06,0,7.59,0l2.51,0c2.82,0,5.64,0,8.46,0,.56,0,1.22-.21,1.67.24.58.66-.19,2.4-.29,2.61a6.08,6.08,0,0,1-2.62,2.78,2.89,2.89,0,0,1-1.12.32c-.74.06-1.48,0-2.23.06-2.23,0-4.46,0-6.69,0a1.46,1.46,0,0,0-.88.3,7.23,7.23,0,0,0-2.39,4.7.57.57,0,0,0,0,.13c.07.53.3.86.9.85,1.27,0,7.27,0,9,0,.66,0,2-.2,2,.61a5.31,5.31,0,0,1-5.8,4.5c-2.29-.05-4.55,0-6.83,0h0c-1.15,0-2.3.05-3.45,0-2.68-.19-4.16,2-5,3.92a.86.86,0,0,0,.88,1.2c1.17,0,2.34,0,3.5,0h18c.8.06,1.61.06,2.4.19s1,.6.72,1.22c-.86,1.81-2.59,3.95-5.3,3.74-1.06-.09-2.12,0-3.19,0h0c-2.35,0-4.71,0-7.07,0a3.6,3.6,0,0,0-1.33.38,6.44,6.44,0,0,0-2.84,3.39c-.35.75.08,1.31.91,1.32,2,0,3.91,0,5.86,0h0l8,0c.25,0,1.16,0,1.15.65a4.57,4.57,0,0,1-.72,2,4.47,4.47,0,0,1-3.78,2.44c-2,0-3.91.11-5.87.14s-3.75-.05-5.62,0a5,5,0,0,0-2.09.6,5.11,5.11,0,0,0-2.5,3.21c-.3.65.1,1.18.8,1.26.17,0,13,0,19.28,0l12.54,0h2.66a.28.28,0,0,0,.12,0c2.7,0,5.4,0,8.11,0a.76.76,0,0,0,.5-.35c1.58-2.35,3.09-4.73,4.71-7,.55-.79,1.42-2.3.45-2.41H39.21c.1-1,.18-1.82.26-2.68.09-1,.17-2.06.27-3.08.16-1.61.36-3.22.48-4.83,0-.51.15-.69.69-.69,2.51,0,5-.07,7.51-.12a1.82,1.82,0,0,0,1.85-1.14c.45-1,1-2.05,1.46-3.07.8-1.65,1.65-3.27,2.39-4.94a8.9,8.9,0,0,0,.42-1.95c.06-.38-.13-.53-.52-.52l-11.36,0H41.41c.12-.18.19-.25.2-.33.19-1.6.37-3.2.54-4.81.14-1.34.25-2.68.41-4a.65.65,0,0,1,.44-.43c1.62-.12,3.24-.2,4.87-.28l3.86-.15h0c.23,0,.46,0,.69,0" fill="#00c0fd" fill-rule="evenodd"/><path d="M3.19,52.76A3.2,3.2,0,1,1,0,56a3.19,3.19,0,0,1,3.19-3.19" fill="#00c0fd" fill-rule="evenodd"/><path d="M8.77,42.41A3.2,3.2,0,1,1,5.58,45.6a3.19,3.19,0,0,1,3.19-3.19" fill="#00c0fd" fill-rule="evenodd"/><path d="M12.9,21.91a3.2,3.2,0,1,1-3.19,3.2,3.2,3.2,0,0,1,3.19-3.2" fill="#00c0fd" fill-rule="evenodd"/><path d="M5.88,7.66a3.2,3.2,0,1,1-3.2,3.2,3.19,3.19,0,0,1,3.2-3.2" fill="#00c0fd" fill-rule="evenodd"/></svg>